<?xml version="1.0" standalone="no"?><svg xmlns="http://www.w3.org/2000/svg" viewBox="0 0 1440 320"><path fill="#18206f" fill-opacity="1" d="M0,96L17.1,101.3C34.3,107,69,117,103,128C137.1,139,171,149,206,165.3C240,181,274,203,309,192C342.9,181,377,139,411,128C445.7,117,480,139,514,122.7C548.6,107,583,53,617,64C651.4,75,686,149,720,181.3C754.3,213,789,203,823,186.7C857.1,171,891,149,926,170.7C960,192,994,256,1029,272C1062.9,288,1097,256,1131,202.7C1165.7,149,1200,75,1234,69.3C1268.6,64,1303,128,1337,149.3C1371.4,171,1406,149,1423,138.7L1440,128L1440,320L1422.9,320C1405.7,320,1371,320,1337,320C1302.9,320,1269,320,1234,320C1200,320,1166,320,1131,320C1097.1,320,1063,320,1029,320C994.3,320,960,320,926,320C891.4,320,857,320,823,320C788.6,320,754,320,720,320C685.7,320,651,320,617,320C582.9,320,549,320,514,320C480,320,446,320,411,320C377.1,320,343,320,309,320C274.3,320,240,320,206,320C171.4,320,137,320,103,320C68.6,320,34,320,17,320L0,320Z"></path></svg>