<svg width="412" height="93" viewBox="0 0 412 93" fill="none" xmlns="http://www.w3.org/2000/svg">
<path fill-rule="evenodd" clip-rule="evenodd" d="M0 6.35656L5.83667 12.5366C11.33 18.7166 23.0033 31.0766 34.3333 26.9566C45.6633 22.8366 57.3367 2.23656 68.6667 0.176559C79.9967 -1.88344 91.67 14.5966 103 22.8366C114.33 31.0766 126.003 31.0766 137.333 39.3166C148.663 47.5566 160.337 64.0366 171.667 61.9766C182.997 59.9166 194.67 39.3166 206 31.0766C217.33 22.8366 229.003 26.9566 240.333 31.0766C251.663 35.1966 263.337 39.3166 274.667 47.5566C285.997 55.7966 297.67 68.1566 309 57.8566C320.33 47.5566 332.003 14.5966 343.333 4.29656C354.663 -6.00344 366.337 6.35656 377.667 12.5366C388.997 18.7166 400.67 18.7166 406.163 18.7166H412V92.8766H406.163C400.67 92.8766 388.997 92.8766 377.667 92.8766C366.337 92.8766 354.663 92.8766 343.333 92.8766C332.003 92.8766 320.33 92.8766 309 92.8766C297.67 92.8766 285.997 92.8766 274.667 92.8766C263.337 92.8766 251.663 92.8766 240.333 92.8766C229.003 92.8766 217.33 92.8766 206 92.8766C194.67 92.8766 182.997 92.8766 171.667 92.8766C160.337 92.8766 148.663 92.8766 137.333 92.8766C126.003 92.8766 114.33 92.8766 103 92.8766C91.67 92.8766 79.9967 92.8766 68.6667 92.8766C57.3367 92.8766 45.6633 92.8766 34.3333 92.8766C23.0033 92.8766 11.33 92.8766 5.83667 92.8766H0V6.35656Z" fill="#8E2DE2"/>
</svg>
